<svg width="300" height="173" viewBox="0 0 300 173" fill="none" xmlns="http://www.w3.org/2000/svg">
<g filter="url(#filter0_b_23_132)">
<path fill-rule="evenodd" clip-rule="evenodd" d="M348.501 -36.2267C352.719 12.8629 305.273 47.1741 271.787 83.011C236.717 120.543 204.158 180.487 153.718 172.228C103.032 163.929 98.9755 91.5438 68.5929 49.7406C46.4593 19.2871 11.2649 0.426667 2.21209 -36.2268C-9.69996 -84.4566 -19.0422 -140.769 12.0156 -179.332C44.4957 -219.66 103.026 -233.37 153.718 -224.341C198.761 -216.318 219.875 -168.347 252.931 -136.422C287.431 -103.104 344.374 -84.2544 348.501 -36.2267Z" fill="url(#paint0_radial_23_132)" fill-opacity="0.7"/>
</g>
<path d="M271.241 40.8772L283.75 45.0882C284.759 45.4275 284.762 46.8486 283.755 47.1926L271.277 51.4536C270.95 51.5663 270.692 51.8231 270.581 52.1496L266.355 64.613C266.014 65.6193 264.588 65.6216 264.243 64.6176L259.966 52.1856C259.853 51.8591 259.595 51.6035 259.268 51.4931L246.759 47.2821C245.749 46.9416 245.747 45.5217 246.754 45.1766L259.233 40.9156C259.559 40.804 259.816 40.5461 259.927 40.2196L264.153 27.7562C264.494 26.7499 265.921 26.7476 266.266 27.7515L270.543 40.1847C270.655 40.5112 270.914 40.7668 271.241 40.8772Z" fill="#F6BD2B"/>
<path d="M25.8657 20.3401L29.7636 21.6571C30.078 21.7632 30.0791 22.2077 29.7651 22.3153L25.8769 23.6479C25.7748 23.6831 25.6945 23.7634 25.66 23.8656L24.3429 27.7635C24.2368 28.0782 23.7924 28.079 23.6848 27.765L22.3522 23.8768C22.3169 23.7747 22.2366 23.6948 22.1345 23.6602L18.2365 22.3432C17.9218 22.2368 17.921 21.7927 18.235 21.6847L22.1236 20.3521C22.2253 20.3172 22.3053 20.2366 22.3398 20.1344L23.6568 16.2365C23.7629 15.9218 24.2078 15.9211 24.3153 16.235L25.648 20.1235C25.6829 20.2256 25.7635 20.3056 25.8657 20.3401Z" fill="#F6BD2B"/>
<path d="M253.143 123.149L258.665 125.014C259.11 125.165 259.112 125.794 258.667 125.947L253.159 127.835C253.014 127.884 252.901 127.998 252.852 128.143L250.986 133.665C250.836 134.111 250.206 134.112 250.053 133.667L248.166 128.159C248.116 128.014 248.002 127.901 247.857 127.852L242.335 125.986C241.889 125.835 241.888 125.206 242.333 125.053L247.842 123.165C247.986 123.116 248.099 123.002 248.148 122.857L250.014 117.335C250.164 116.889 250.794 116.888 250.947 117.333L252.835 122.842C252.884 122.986 252.998 123.1 253.143 123.149Z" fill="#F6BD2B"/>
<g filter="url(#filter1_d_23_132)">
<path d="M178.063 50.344C178.474 49.0774 178.908 47.7708 179.794 46.7763C180.68 45.7815 182.148 45.1771 183.376 45.6927C184.454 46.1445 185.061 47.3119 185.314 48.4526C185.493 49.2618 185.534 50.1351 185.206 50.8962C182.585 51.3818 180.677 50.8625 178.063 50.344Z" fill="#F6BD2B"/>
<path d="M195.326 51.3434C201.252 52.1894 207.324 51.2938 213.014 49.4031C215.993 48.4228 218.927 47.1102 221.254 45.0336C221.407 44.9077 221.552 44.7766 221.688 44.6406C223.109 43.2592 224.291 41.4322 224.237 39.4493C224.216 38.4956 223.917 37.5716 223.458 36.7471C222.733 35.4264 221.633 34.3976 220.338 33.6628C218.553 32.6413 216.381 32.165 214.321 32.2535C210.752 32.4006 207.4 33.9798 204.315 35.7827C199.454 38.6234 195.02 42.1107 190.742 45.7577C189.682 46.658 188.629 47.585 187.586 48.4954C186.332 49.6113 185.901 49.9031 187.769 50.1224C190.307 50.4387 192.796 50.9753 195.326 51.3434ZM186.543 46.6713C186.815 46.2854 187.066 45.9332 187.27 45.6217C188.326 43.9925 189.447 42.4248 190.631 40.9048C193.007 37.8704 195.651 35.0376 198.515 32.4695C202.004 29.3369 206.089 26.4848 210.758 26.0281C212.906 25.8093 215.079 26.1278 217.157 26.7648C217.936 27.0048 218.703 27.2833 219.451 27.5959C221.002 28.2422 222.489 29.0551 223.669 30.2566C226.825 33.4528 226.842 38.8745 224.539 42.7344C223.888 43.8284 223.094 44.8166 222.19 45.6832C219.902 47.9072 216.925 49.4672 213.878 50.4868C207.089 52.7445 199.797 52.6993 192.641 51.7816C190.818 51.5431 189.003 51.2527 187.207 50.9283C186.556 50.8198 185.915 50.7512 185.268 50.7131C185.019 50.6924 184.765 50.6801 184.512 50.6679C184.515 50.6238 184.522 50.572 184.53 50.5198C184.56 50.1968 184.667 49.8398 184.836 49.4735C184.967 49.1528 185.133 48.8302 185.321 48.5087C185.692 47.875 186.133 47.2369 186.543 46.6713Z" fill="#F6BD2B"/>
<path d="M157.809 23.1354C157.942 24.9309 158.456 26.669 159.174 28.3281C159.638 29.4061 160.192 30.4461 160.775 31.4641C163.446 36.0994 166.969 40.3083 171.429 43.2579C172.679 44.0832 173.953 44.8383 175.213 45.6379C175.882 46.0532 176.539 46.4817 177.191 46.9292C178.043 47.5213 178.327 47.5779 178.375 47.1954C178.41 46.9503 178.356 46.5265 178.282 45.9492C178.128 44.7203 177.973 43.4792 177.8 42.2461C177.111 37.2693 176.225 32.309 174.666 27.5363C173.895 25.1804 172.937 22.8152 171.479 20.8527C171.064 20.2733 170.602 19.735 170.082 19.2388C167.788 17.0056 164.316 15.748 161.308 16.8163C160.513 17.0948 159.762 17.5373 159.187 18.1509C157.968 19.4462 157.677 21.3647 157.809 23.1354ZM165.028 12.3533C166.269 12.2671 167.498 12.4919 168.696 12.8498C168.938 12.9162 169.18 12.9948 169.417 13.0804C171.93 13.9413 174.35 15.2386 176.148 17.1909C176.312 17.3633 176.464 17.5492 176.616 17.7351C177.018 18.2224 177.378 18.7321 177.703 19.2696C177.832 19.4821 177.95 19.6959 178.068 19.9216C178.216 20.1946 178.357 20.4744 178.487 20.7553C179.29 22.4753 179.803 24.3503 180.132 26.2532C180.218 26.6805 180.286 27.1157 180.347 27.5451C180.342 27.5518 180.349 27.5574 180.349 27.5574C180.404 27.9253 180.447 28.2816 180.484 28.645C180.494 28.6874 180.497 28.7245 180.5 28.7613C180.889 32.1804 180.972 35.6381 180.76 39.077C180.646 40.8004 180.467 42.5042 180.202 44.2153C180.119 44.7752 180.058 45.513 179.96 46.2661C179.888 46.8002 179.797 47.3416 179.665 47.8373C179.519 48.3897 179.325 48.8781 179.044 49.2247C178.692 48.9504 178.345 48.6694 177.981 48.4083C177.69 48.197 177.4 47.998 177.092 47.807C176.254 47.2943 175.415 46.7695 174.587 46.2312C173.095 45.2588 171.624 44.2349 170.204 43.1632C165.971 39.958 162.185 36.2372 159.55 31.6674C159.047 30.785 158.584 29.868 158.188 28.9269C157.032 26.1316 156.459 23.1071 157.029 20.1654C157.213 19.1875 157.56 18.2329 158.025 17.3429C159.435 14.6405 162.014 12.5469 165.028 12.3533Z" fill="#F6BD2B"/>
<path d="M144.248 37.4962L138.121 58.7927L145.52 61.4867L131 113.559L187.703 131.987L190.858 133.072L192.205 133.542L205.197 138L220.763 83.4799L227.739 85.5187L232.933 64.0729L213.992 58.1668L208.263 56.3813L192.642 51.7817L185.753 49.7488L185.452 49.6633L184.836 49.4733L184.651 49.4218L184.014 49.2307L180.251 48.1185L179.102 47.7755L178.705 47.657L177.465 47.2948L174.921 46.5437L174.594 46.4434L168.923 44.7712L144.248 37.4962Z" fill="#F36923"/>
<path d="M174.595 46.4434L174.344 47.3178L168.5 67.7818L153.756 120.955L161.74 123.549L177.468 70.4295L183.358 51.3426L183.441 51.0848L184.015 49.2308L180.252 48.1189L179.102 47.7756L178.706 47.6575L177.466 47.2949L174.922 46.5438L174.595 46.4434Z" fill="#F6BD2B"/>
<path d="M137.86 59.2384C137.896 59.2591 137.934 59.2762 137.975 59.288L226.83 85.5655C227.104 85.6466 227.392 85.49 227.473 85.2163C227.554 84.9426 227.398 84.6537 227.123 84.5737L138.269 58.2962C137.995 58.2151 137.707 58.3714 137.626 58.6455C137.557 58.878 137.66 59.121 137.86 59.2384Z" fill="#F6BD2B"/>
<path opacity="0.2" d="M213.994 58.1632L192.203 133.538L205.195 137.999L220.767 83.4785L227.735 85.5173L232.932 64.076L213.994 58.1632Z" fill="#180000"/>
</g>
<g filter="url(#filter2_d_23_132)">
<path d="M71.2228 28.18C71.0562 27.6913 70.8805 27.1872 70.5217 26.8035C70.1629 26.4197 69.5682 26.1865 69.0708 26.3854C68.6343 26.5597 68.3886 27.0101 68.2862 27.4503C68.2134 27.7625 68.1968 28.0994 68.3298 28.3931C69.3912 28.5804 70.164 28.3801 71.2228 28.18Z" fill="#F6BD2B"/>
<path d="M64.2313 28.5658C61.831 28.8922 59.3718 28.5467 57.0675 27.8172C55.861 27.439 54.6725 26.9325 53.7302 26.1313C53.6682 26.0827 53.6096 26.0322 53.5544 25.9797C52.9791 25.4467 52.5002 24.7418 52.5221 23.9767C52.5305 23.6088 52.6517 23.2523 52.8377 22.9342C53.1314 22.4246 53.5769 22.0277 54.1011 21.7442C54.8241 21.35 55.7038 21.1663 56.5381 21.2004C57.9835 21.2572 59.341 21.8665 60.5906 22.5621C62.5594 23.6581 64.3552 25.0036 66.0876 26.4107C66.5169 26.7581 66.9434 27.1157 67.3658 27.467C67.8737 27.8975 68.0486 28.0101 67.2918 28.0947C66.2639 28.2167 65.2561 28.4238 64.2313 28.5658ZM67.7883 26.7632C67.6784 26.6143 67.5765 26.4784 67.4937 26.3582C67.0664 25.7296 66.6122 25.1248 66.1326 24.5383C65.1703 23.3676 64.0994 22.2746 62.9396 21.2837C61.5265 20.0751 59.8722 18.9747 57.9811 18.7985C57.1113 18.7141 56.2309 18.8369 55.3895 19.0827C55.074 19.1753 54.7632 19.2828 54.4605 19.4034C53.8325 19.6527 53.2302 19.9664 52.752 20.4299C51.4737 21.6631 51.4668 23.755 52.3998 25.2442C52.6635 25.6663 52.985 26.0476 53.3511 26.382C54.2778 27.24 55.4837 27.8419 56.7177 28.2353C59.4673 29.1064 62.4205 29.089 65.3185 28.7349C66.0569 28.6429 66.7922 28.5308 67.5194 28.4056C67.7832 28.3638 68.0427 28.3373 68.3046 28.3226C68.4054 28.3146 68.5083 28.3099 68.6111 28.3052C68.6099 28.2882 68.6067 28.2682 68.6036 28.248C68.5914 28.1234 68.5481 27.9857 68.4797 27.8444C68.4267 27.7206 68.3595 27.5961 68.2833 27.4721C68.1332 27.2276 67.9544 26.9814 67.7883 26.7632Z" fill="#F6BD2B"/>
<path d="M79.4257 17.6823C79.3716 18.3751 79.1636 19.0457 78.8727 19.6858C78.6849 20.1018 78.4606 20.503 78.2245 20.8958C77.1425 22.6842 75.7156 24.3081 73.9094 25.4461C73.4033 25.7646 72.8871 26.0559 72.3767 26.3644C72.106 26.5247 71.8398 26.69 71.5755 26.8626C71.2308 27.0911 71.1158 27.1129 71.0962 26.9653C71.082 26.8708 71.104 26.7072 71.134 26.4845C71.1963 26.0104 71.2589 25.5315 71.329 25.0558C71.608 23.1356 71.9669 21.2218 72.5985 19.3803C72.9107 18.4713 73.2987 17.5588 73.889 16.8016C74.0573 16.5781 74.2443 16.3704 74.455 16.179C75.384 15.3173 76.7901 14.8321 78.0083 15.2443C78.3306 15.3517 78.6347 15.5224 78.8676 15.7592C79.3612 16.259 79.479 16.9992 79.4257 17.6823ZM76.5018 13.5223C75.9994 13.4891 75.5013 13.5758 75.0163 13.7139C74.9184 13.7395 74.8201 13.7698 74.7243 13.8029C73.7064 14.135 72.7264 14.6356 71.9981 15.3888C71.9319 15.4553 71.8701 15.5271 71.8085 15.5988C71.6459 15.7868 71.5001 15.9834 71.3685 16.1908C71.3159 16.2728 71.2684 16.3553 71.2204 16.4424C71.1607 16.5477 71.1034 16.6557 71.051 16.7641C70.7254 17.4276 70.5177 18.1511 70.3845 18.8853C70.3496 19.0501 70.3222 19.218 70.2974 19.3837C70.2996 19.3863 70.2969 19.3885 70.2969 19.3885C70.2743 19.5304 70.257 19.6679 70.2419 19.8081C70.238 19.8244 70.2366 19.8388 70.2354 19.853C70.0779 21.1722 70.0445 22.5062 70.1302 23.8331C70.1766 24.498 70.249 25.1553 70.3561 25.8155C70.3897 26.0316 70.4147 26.3162 70.4542 26.6068C70.4836 26.8129 70.5204 27.0218 70.5738 27.213C70.6327 27.4261 70.7116 27.6146 70.8254 27.7483C70.968 27.6425 71.1085 27.534 71.2557 27.4333C71.3736 27.3518 71.4911 27.275 71.6158 27.2013C71.9553 27.0035 72.2952 26.801 72.6304 26.5933C73.2347 26.2181 73.8305 25.8231 74.4055 25.4096C76.1198 24.173 77.6532 22.7374 78.7203 20.9742C78.9242 20.6338 79.1116 20.28 79.2721 19.9169C79.7403 18.8383 79.9724 17.6714 79.7415 16.5364C79.6669 16.1592 79.5262 15.7908 79.338 15.4475C78.7669 14.4048 77.7223 13.597 76.5018 13.5223Z" fill="#F6BD2B"/>
<path d="M84.9177 23.2229L87.3992 31.4397L84.4028 32.4791L90.2835 52.5702L67.3183 59.6799L66.0406 60.0986L65.495 60.2801L60.2329 62L53.9286 40.9647L51.1033 41.7513L49 33.477L56.6712 31.1982L58.9914 30.5093L65.318 28.7347L68.108 27.9503L68.2301 27.9173L68.4794 27.844L68.5544 27.8242L68.8124 27.7504L70.3364 27.3213L70.8018 27.189L70.9623 27.1433L71.4645 27.0035L72.4952 26.7137L72.6276 26.675L74.9241 26.0298L84.9177 23.2229Z" fill="#8D0099"/>
<path d="M72.6277 26.6748L72.7291 27.0122L75.0961 34.9077L81.0675 55.4232L77.8337 56.4243L71.4639 35.9293L69.0786 28.565L69.045 28.4656L68.8125 27.7502L70.3365 27.3213L70.8021 27.1888L70.9624 27.1432L71.4648 27.0033L72.4953 26.7135L72.6277 26.6748Z" fill="#F6BD2B"/>
<path d="M87.5053 31.6114C87.4909 31.6194 87.4754 31.626 87.4588 31.6305L51.472 41.7691C51.361 41.8004 51.2446 41.7399 51.2118 41.6343C51.179 41.5287 51.2422 41.4173 51.3534 41.3864L87.34 31.2479C87.4508 31.2166 87.5674 31.2769 87.6002 31.3826C87.6281 31.4723 87.5866 31.5661 87.5053 31.6114Z" fill="#F6BD2B"/>
<path opacity="0.2" d="M56.6697 31.1967L65.4953 60.2785L60.2334 61.9995L53.9267 40.964L51.1048 41.7507L49 33.478L56.6697 31.1967Z" fill="#180000"/>
</g>
<path d="M93.2051 90.0971L104.202 88.064C107.463 87.4612 110 90.8591 108.495 93.8141L103.419 103.78C102.821 104.953 102.84 106.345 103.467 107.503L108.799 117.334C110.38 120.249 107.932 123.711 104.657 123.193L93.6107 121.445C92.3101 121.239 90.9914 121.687 90.0845 122.642L82.3826 130.75C80.0989 133.155 76.0494 131.897 75.53 128.622L73.7787 117.576C73.5727 116.275 72.7396 115.159 71.5513 114.592L61.4595 109.773C58.4671 108.344 58.4121 104.104 61.3666 102.598L71.3305 97.5189C72.5035 96.9208 73.3075 95.7839 73.4799 94.4784L74.9448 83.391C75.3791 80.1034 79.3947 78.7409 81.7398 81.0856L89.6491 88.9922C90.5804 89.9233 91.9102 90.3365 93.2051 90.0971Z" fill="#333333"/>
<path d="M91.0225 88.1873L102.02 86.1543C105.281 85.5514 107.817 88.9496 106.312 91.9043L101.237 101.87C100.639 103.043 100.657 104.436 101.285 105.593L106.617 115.424C108.198 118.339 105.75 121.801 102.474 121.283L91.4281 119.535C90.1275 119.33 88.8088 119.777 87.9019 120.732L80.2 128.841C77.9163 131.245 73.8668 129.987 73.3476 126.712L71.5961 115.666C71.3901 114.366 70.557 113.25 69.3687 112.682L59.2768 107.863C56.2844 106.434 56.2295 102.194 59.184 100.688L69.1479 95.6092C70.3211 95.0112 71.1249 93.8741 71.2973 92.5686L72.7622 81.4813C73.1965 78.1936 77.2121 76.8314 79.5572 79.1758L87.4665 87.0827C88.3978 88.0135 89.7275 88.4267 91.0225 88.1873Z" fill="#F6BD2B"/>
<path d="M92.2458 98.4547C93.2527 101.25 92.1754 104.197 89.8395 105.039C87.5035 105.88 84.7934 104.297 83.7865 101.502C82.7797 98.7076 83.8572 95.7596 86.1931 94.9182C88.529 94.0766 91.2389 95.6598 92.2458 98.4547Z" fill="white"/>
<path d="M92.2517 98.4725C93.0568 100.707 92.1947 103.062 90.3294 103.734C88.4621 104.407 86.2961 103.143 85.4907 100.908C85.2134 100.138 85.1336 99.3554 85.2264 98.6281L88.1639 99.5905L85.6602 97.2212C86.0416 96.4926 86.6409 95.9244 87.4153 95.6455C89.2806 94.9736 91.4473 96.2399 92.2517 98.4725Z" fill="#333333"/>
<path d="M81.8208 102.211C82.8277 105.006 81.7504 107.954 79.4145 108.795C77.0785 109.637 74.3686 108.053 73.3618 105.259C72.3549 102.464 73.4322 99.516 75.7681 98.6743C78.104 97.8329 80.8139 99.4162 81.8208 102.211Z" fill="white"/>
<path d="M81.8268 102.228C82.6322 104.463 81.7699 106.818 79.9048 107.49C78.0372 108.163 75.8712 106.899 75.0661 104.664C74.7888 103.894 74.7088 103.111 74.8016 102.384L77.739 103.346L75.2354 100.977C75.6168 100.248 76.216 99.6805 76.9906 99.4014C78.8558 98.7295 81.0224 99.9957 81.8268 102.228Z" fill="#333333"/>
<path d="M80.0312 111.1C80.0312 111.1 82.7425 113.678 86.755 112.232C90.7675 110.786 90.8343 107.208 90.8343 107.208" stroke="#333333" stroke-miterlimit="10" stroke-linecap="round" stroke-linejoin="round"/>
<defs>
<filter id="filter0_b_23_132" x="-39" y="-257" width="417.764" height="460" filterUnits="userSpaceOnUse" color-interpolation-filters="sRGB">
<feFlood flood-opacity="0" result="BackgroundImageFix"/>
<feGaussianBlur in="BackgroundImageFix" stdDeviation="15"/>
<feComposite in2="SourceAlpha" operator="in" result="effect1_backgroundBlur_23_132"/>
<feBlend mode="normal" in="SourceGraphic" in2="effect1_backgroundBlur_23_132" result="shape"/>
</filter>
<filter id="filter1_d_23_132" x="119" y="10.335" width="125.933" height="149.665" filterUnits="userSpaceOnUse" color-interpolation-filters="sRGB">
<feFlood flood-opacity="0" result="BackgroundImageFix"/>
<feColorMatrix in="SourceAlpha" type="matrix" values="0 0 0 0 0 0 0 0 0 0 0 0 0 0 0 0 0 0 127 0" result="hardAlpha"/>
<feMorphology radius="3" operator="erode" in="SourceAlpha" result="effect1_dropShadow_23_132"/>
<feOffset dy="10"/>
<feGaussianBlur stdDeviation="7.5"/>
<feComposite in2="hardAlpha" operator="out"/>
<feColorMatrix type="matrix" values="0 0 0 0 0 0 0 0 0 0 0 0 0 0 0 0 0 0 0.1 0"/>
<feBlend mode="normal" in2="BackgroundImageFix" result="effect1_dropShadow_23_132"/>
<feBlend mode="normal" in="SourceGraphic" in2="effect1_dropShadow_23_132" result="shape"/>
</filter>
<filter id="filter2_d_23_132" x="37" y="11.5151" width="65.2832" height="72.4849" filterUnits="userSpaceOnUse" color-interpolation-filters="sRGB">
<feFlood flood-opacity="0" result="BackgroundImageFix"/>
<feColorMatrix in="SourceAlpha" type="matrix" values="0 0 0 0 0 0 0 0 0 0 0 0 0 0 0 0 0 0 127 0" result="hardAlpha"/>
<feMorphology radius="3" operator="erode" in="SourceAlpha" result="effect1_dropShadow_23_132"/>
<feOffset dy="10"/>
<feGaussianBlur stdDeviation="7.5"/>
<feComposite in2="hardAlpha" operator="out"/>
<feColorMatrix type="matrix" values="0 0 0 0 0 0 0 0 0 0 0 0 0 0 0 0 0 0 0.1 0"/>
<feBlend mode="normal" in2="BackgroundImageFix" result="effect1_dropShadow_23_132"/>
<feBlend mode="normal" in="SourceGraphic" in2="effect1_dropShadow_23_132" result="shape"/>
</filter>
<radialGradient id="paint0_radial_23_132" cx="0" cy="0" r="1" gradientUnits="userSpaceOnUse" gradientTransform="translate(169.882 -27) rotate(149.195) scale(158.037 175.791)">
<stop stop-color="#FFAAAA"/>
<stop offset="1" stop-color="#FFAAAA" stop-opacity="0"/>
</radialGradient>
</defs>
</svg>
