<svg width="300" height="199" viewBox="0 0 300 199" fill="none" xmlns="http://www.w3.org/2000/svg">
<g filter="url(#filter0_b_23_132)">
<path fill-rule="evenodd" clip-rule="evenodd" d="M348.501 -36.2267C352.719 12.8629 305.273 47.1741 271.787 83.011C236.717 120.543 204.158 180.487 153.718 172.228C103.032 163.929 98.9755 91.5438 68.5929 49.7406C46.4593 19.2871 11.2649 0.426667 2.21209 -36.2268C-9.69996 -84.4566 -19.0422 -140.769 12.0156 -179.332C44.4957 -219.66 103.026 -233.37 153.718 -224.341C198.761 -216.318 219.875 -168.347 252.931 -136.422C287.431 -103.104 344.374 -84.2544 348.501 -36.2267Z" fill="url(#paint0_radial_23_132)" fill-opacity="0.7"/>
</g>
<g filter="url(#filter1_d_23_132)">
<path d="M83.2006 81.9999H53.529C46.057 81.9999 40 88.0648 40 95.5467V108.223C40 116.379 46.6026 122.991 54.7484 122.991H56.8767C60.3841 122.991 63.737 124.437 66.1451 126.991L78.583 140.178C79.0972 140.722 79.9759 140.336 79.9759 139.566V123.855C79.9759 123.378 80.341 122.991 80.7919 122.991C88.0417 123.142 94 117.298 94 110.038V92.8135C94 86.8415 89.1647 81.9999 83.2006 81.9999Z" fill="#E6C9E8"/>
<path d="M65.3463 107.153V105.808C65.3463 104.833 65.4588 104.032 65.6838 103.404C65.92 102.776 66.28 102.249 66.7638 101.823C67.2588 101.386 67.9113 100.966 68.7213 100.562C69.43 100.204 69.9813 99.8729 70.375 99.5703C70.7688 99.2564 71.0388 98.9369 71.185 98.6119C71.3425 98.2868 71.4213 97.9057 71.4213 97.4685C71.4213 96.7623 71.1344 96.1795 70.5606 95.7199C69.9869 95.2491 69.205 95.0137 68.215 95.0137C67.0338 95.0137 66.1225 95.2771 65.4813 95.8039C64.8513 96.3196 64.4913 97.0089 64.4013 97.8721H60.25C60.3738 95.9216 61.0938 94.358 62.41 93.181C63.7375 92.004 65.6163 91.4155 68.0463 91.4155C69.6438 91.4155 71.0219 91.6845 72.1806 92.2226C73.3394 92.7606 74.2338 93.4892 74.8638 94.4084C75.4938 95.3276 75.8088 96.3588 75.8088 97.5022C75.8088 98.6679 75.5106 99.6543 74.9144 100.461C74.3294 101.268 73.4125 101.986 72.1638 102.614C71.4325 102.983 70.8588 103.331 70.4425 103.656C70.0375 103.981 69.7506 104.34 69.5819 104.732C69.4131 105.113 69.3288 105.595 69.3288 106.178V107.153H65.3463ZM67.4388 114.148C66.6175 114.148 65.9481 113.896 65.4306 113.391C64.9244 112.887 64.6713 112.27 64.6713 111.542C64.6713 110.78 64.9244 110.146 65.4306 109.642C65.9481 109.126 66.6119 108.868 67.4219 108.868C68.2431 108.868 68.9238 109.126 69.4638 109.642C70.0038 110.146 70.2738 110.774 70.2738 111.525C70.2738 112.265 70.0038 112.887 69.4638 113.391C68.9238 113.896 68.2488 114.148 67.4388 114.148Z" fill="#8D0099"/>
</g>
<g filter="url(#filter2_d_23_132)">
<path d="M148.089 15H230.758C251.576 15 268.452 31.8146 268.452 52.5573V87.7027C268.452 110.313 250.056 128.644 227.361 128.644H221.431C211.659 128.644 202.317 132.654 195.608 139.733L160.954 176.293C159.521 177.803 157.073 176.733 157.073 174.597V131.041C157.073 129.717 156.056 128.644 154.8 128.644C134.601 129.062 118 112.862 118 92.7329V44.9798C118 28.423 131.472 15 148.089 15Z" fill="white"/>
</g>
<path d="M222.029 31.4131C236.774 39.9261 241.851 58.7363 233.368 73.4279C227.322 83.9014 216.018 89.4498 204.684 88.6901L195.937 103.839L172.353 90.2229L181.099 75.0736C174.774 65.6376 173.928 53.0744 179.975 42.6009C188.457 27.9093 207.285 22.9008 222.029 31.4131Z" fill="#FFB82F"/>
<path d="M168.719 109.946L180.673 116.847C182.7 118.017 185.289 117.33 186.455 115.309C187.622 113.289 186.923 110.703 184.896 109.533L172.942 102.631C170.916 101.461 168.327 102.149 167.16 104.169C165.994 106.19 166.693 108.776 168.719 109.946Z" fill="#666666"/>
<path d="M193.299 60.9212C193.42 60.6383 193.788 60.5363 194.121 60.6923C194.459 60.8595 194.623 61.205 194.506 61.4882L193.642 63.5205L193.939 70.2634C193.947 70.408 194.054 70.492 194.101 70.523C194.162 70.5541 194.274 70.6112 194.408 70.562L200.111 68.3872C200.469 68.2495 200.904 68.3185 201.264 68.5362C201.627 68.7657 201.859 69.128 201.881 69.5034L202.202 74.9638C202.212 75.1156 202.327 75.2 202.377 75.2289C202.435 75.2568 202.554 75.3212 202.694 75.26L209.36 72.2965L210.526 70.7391C210.711 70.493 211.106 70.4667 211.408 70.6729C211.71 70.8838 211.807 71.2523 211.622 71.4984L210.566 72.9108C210.54 73.0541 210.454 73.1763 210.314 73.25L190.409 99.8635C190.238 100.096 189.88 100.135 189.586 99.9654C189.566 99.954 189.546 99.9426 189.527 99.9297C189.225 99.7212 189.13 99.3497 189.316 99.1044L207.814 74.368L203.395 76.33C202.911 76.5454 202.293 76.5053 201.796 76.1784C201.28 75.8681 200.953 75.3666 200.92 74.8409L200.609 69.5346L195.053 71.6557C194.589 71.8311 194.04 71.7704 193.562 71.4946C193.536 71.4797 193.511 71.4648 193.486 71.4484C192.991 71.1325 192.681 70.6391 192.659 70.1274L192.487 66.2363L180.64 94.0934C180.518 94.3778 180.15 94.4798 179.818 94.3223C179.795 94.3131 179.777 94.3026 179.758 94.2912C179.465 94.1222 179.32 93.7943 179.432 93.5279L192.35 63.1531L192.343 62.9968C192.335 62.8 192.441 62.6447 192.602 62.5591L193.299 60.9212Z" fill="white"/>
<path d="M216.264 48.4006C214.163 52.0411 215.42 56.7037 219.075 58.814C222.729 60.9234 227.395 59.6809 229.497 56.0405C231.599 52.4 230.342 47.7374 226.688 45.6279C223.033 43.5177 218.366 44.7602 216.264 48.4006Z" fill="white"/>
<path d="M166.046 101.93L188.952 115.155C190.018 115.77 191.376 115.408 191.987 114.349L197.958 104.006C198.57 102.946 198.205 101.589 197.14 100.974L174.233 87.7487C173.169 87.1342 171.811 87.4965 171.199 88.5569L165.228 98.8993C164.616 99.9583 164.981 101.315 166.046 101.93Z" fill="#333333"/>
<path d="M166.96 95.8965L193.719 111.346L196.56 106.426L169.801 90.9765L166.96 95.8965Z" fill="#666666"/>
<g filter="url(#filter3_d_23_132)">
<path d="M273.978 115.426C273.978 125.05 266.148 132.852 256.488 132.852C246.83 132.852 239 125.05 239 115.426C239 105.803 246.83 97.9998 256.488 97.9998C266.148 97.9998 273.978 105.803 273.978 115.426Z" fill="#F36923"/>
<path fill-rule="evenodd" clip-rule="evenodd" d="M255.359 124.277C255.359 124.898 255.864 125.403 256.489 125.403C257.114 125.403 257.619 124.898 257.619 124.277V116.552H265.373C265.998 116.552 266.503 116.047 266.503 115.426C266.503 114.804 265.998 114.3 265.373 114.3H257.619V106.574C257.619 105.952 257.114 105.448 256.489 105.448C255.864 105.448 255.359 105.952 255.359 106.574V114.3H247.606C246.982 114.3 246.476 114.804 246.476 115.426C246.476 116.047 246.982 116.552 247.606 116.552H255.359V124.277Z" fill="white"/>
</g>
<path d="M62.2413 30.8772L74.7501 35.0882C75.7589 35.4275 75.7624 36.8486 74.7548 37.1926L62.2775 41.4536C61.9498 41.5663 61.692 41.8231 61.5812 42.1496L57.3549 54.613C57.0143 55.6193 55.588 55.6216 55.2428 54.6176L50.9663 42.1856C50.8532 41.8591 50.5955 41.6035 50.2678 41.4931L37.7589 37.2821C36.749 36.9416 36.7466 35.5217 37.7543 35.1766L50.2328 30.9156C50.5593 30.804 50.8159 30.5461 50.9267 30.2196L55.153 17.7562C55.4936 16.7499 56.921 16.7476 57.2662 17.7515L61.5427 30.1847C61.6547 30.5112 61.9136 30.7668 62.2413 30.8772Z" fill="#F6BD2B"/>
<path d="M25.8657 20.3401L29.7636 21.6571C30.078 21.7632 30.0791 22.2077 29.7651 22.3153L25.8769 23.6479C25.7748 23.6831 25.6945 23.7634 25.66 23.8656L24.3429 27.7635C24.2368 28.0782 23.7924 28.079 23.6848 27.765L22.3522 23.8768C22.3169 23.7747 22.2366 23.6948 22.1345 23.6602L18.2365 22.3432C17.9218 22.2368 17.921 21.7927 18.235 21.6847L22.1236 20.3521C22.2253 20.3172 22.3053 20.2366 22.3398 20.1344L23.6568 16.2365C23.7629 15.9218 24.2078 15.9211 24.3153 16.235L25.648 20.1235C25.6829 20.2256 25.7635 20.3056 25.8657 20.3401Z" fill="#F6BD2B"/>
<path d="M226.143 143.149L231.665 145.014C232.11 145.165 232.112 145.794 231.667 145.947L226.159 147.835C226.014 147.884 225.901 147.998 225.852 148.143L223.986 153.665C223.836 154.111 223.206 154.112 223.053 153.667L221.166 148.159C221.116 148.014 221.002 147.901 220.857 147.852L215.335 145.986C214.889 145.835 214.888 145.206 215.333 145.053L220.842 143.165C220.986 143.116 221.099 143.002 221.148 142.857L223.014 137.335C223.164 136.889 223.794 136.888 223.947 137.333L225.835 142.842C225.884 142.986 225.998 143.1 226.143 143.149Z" fill="#F6BD2B"/>
<defs>
<filter id="filter0_b_23_132" x="-39" y="-257" width="417.764" height="460" filterUnits="userSpaceOnUse" color-interpolation-filters="sRGB">
<feFlood flood-opacity="0" result="BackgroundImageFix"/>
<feGaussianBlur in="BackgroundImageFix" stdDeviation="15"/>
<feComposite in2="SourceAlpha" operator="in" result="effect1_backgroundBlur_23_132"/>
<feBlend mode="normal" in="SourceGraphic" in2="effect1_backgroundBlur_23_132" result="shape"/>
</filter>
<filter id="filter1_d_23_132" x="28" y="80" width="78" height="82.4326" filterUnits="userSpaceOnUse" color-interpolation-filters="sRGB">
<feFlood flood-opacity="0" result="BackgroundImageFix"/>
<feColorMatrix in="SourceAlpha" type="matrix" values="0 0 0 0 0 0 0 0 0 0 0 0 0 0 0 0 0 0 127 0" result="hardAlpha"/>
<feMorphology radius="3" operator="erode" in="SourceAlpha" result="effect1_dropShadow_23_132"/>
<feOffset dy="10"/>
<feGaussianBlur stdDeviation="7.5"/>
<feComposite in2="hardAlpha" operator="out"/>
<feColorMatrix type="matrix" values="0 0 0 0 0 0 0 0 0 0 0 0 0 0 0 0 0 0 0.1 0"/>
<feBlend mode="normal" in2="BackgroundImageFix" result="effect1_dropShadow_23_132"/>
<feBlend mode="normal" in="SourceGraphic" in2="effect1_dropShadow_23_132" result="shape"/>
</filter>
<filter id="filter2_d_23_132" x="106" y="13" width="174.452" height="186" filterUnits="userSpaceOnUse" color-interpolation-filters="sRGB">
<feFlood flood-opacity="0" result="BackgroundImageFix"/>
<feColorMatrix in="SourceAlpha" type="matrix" values="0 0 0 0 0 0 0 0 0 0 0 0 0 0 0 0 0 0 127 0" result="hardAlpha"/>
<feMorphology radius="3" operator="erode" in="SourceAlpha" result="effect1_dropShadow_23_132"/>
<feOffset dy="10"/>
<feGaussianBlur stdDeviation="7.5"/>
<feComposite in2="hardAlpha" operator="out"/>
<feColorMatrix type="matrix" values="0 0 0 0 0 0 0 0 0 0 0 0 0 0 0 0 0 0 0.1 0"/>
<feBlend mode="normal" in2="BackgroundImageFix" result="effect1_dropShadow_23_132"/>
<feBlend mode="normal" in="SourceGraphic" in2="effect1_dropShadow_23_132" result="shape"/>
</filter>
<filter id="filter3_d_23_132" x="227" y="96" width="58.9775" height="58.8521" filterUnits="userSpaceOnUse" color-interpolation-filters="sRGB">
<feFlood flood-opacity="0" result="BackgroundImageFix"/>
<feColorMatrix in="SourceAlpha" type="matrix" values="0 0 0 0 0 0 0 0 0 0 0 0 0 0 0 0 0 0 127 0" result="hardAlpha"/>
<feMorphology radius="3" operator="erode" in="SourceAlpha" result="effect1_dropShadow_23_132"/>
<feOffset dy="10"/>
<feGaussianBlur stdDeviation="7.5"/>
<feComposite in2="hardAlpha" operator="out"/>
<feColorMatrix type="matrix" values="0 0 0 0 0 0 0 0 0 0 0 0 0 0 0 0 0 0 0.1 0"/>
<feBlend mode="normal" in2="BackgroundImageFix" result="effect1_dropShadow_23_132"/>
<feBlend mode="normal" in="SourceGraphic" in2="effect1_dropShadow_23_132" result="shape"/>
</filter>
<radialGradient id="paint0_radial_23_132" cx="0" cy="0" r="1" gradientUnits="userSpaceOnUse" gradientTransform="translate(169.882 -27) rotate(149.195) scale(158.037 175.791)">
<stop stop-color="#FFC051"/>
<stop offset="1" stop-color="#FFC051" stop-opacity="0"/>
</radialGradient>
</defs>
</svg>
