<svg width="200" height="54" viewBox="0 0 200 54" fill="none" xmlns="http://www.w3.org/2000/svg">
<path d="M64.9055 15.1134L64.2501 13.9938C63.3769 12.5021 62.9402 11.7562 62.3229 11.3962C61.781 11.0801 61.1464 10.9604 60.5264 11.0574C59.82 11.1679 59.141 11.7034 57.783 12.7743L54.9632 14.998C53.8577 15.8668 52.2323 15.1104 52.188 13.7065L51.931 5.5527C51.8799 3.93036 51.8543 3.11918 51.5119 2.52728C51.2109 2.00714 50.746 1.60104 50.1897 1.37233C49.5566 1.11207 48.7369 1.19557 47.0975 1.36257C45.785 1.49628 45.1288 1.56313 44.6284 1.84808C44.1853 2.10036 43.8261 2.46677 43.583 2.91439C43.3084 3.41996 43.256 4.07006 43.1513 5.37024C42.9111 8.35314 42.5943 12.2416 42.3569 15.367C42.2202 17.1666 42.1518 18.0664 41.6848 18.6968C41.3009 19.2149 40.6315 19.6337 39.9971 19.7527C39.2252 19.8975 38.4872 19.607 37.0112 19.0262C30.6762 16.5333 21.8764 11.8628 15.6414 8.48081C14.3908 7.80245 13.7655 7.46327 13.1457 7.43236C12.5994 7.40512 12.0592 7.54203 11.592 7.82615C11.062 8.14845 10.6748 8.74387 9.90037 9.93472L9.60475 10.3893C8.75438 11.6968 8.3292 12.3506 8.27049 13.0275C8.21991 13.6107 8.37113 14.2278 8.68568 14.7217C9.05079 15.2951 9.71139 15.6684 11.0326 16.415L11.0326 16.415C16.7585 19.6506 22.5011 22.4164 26.927 24.4187C29.5247 25.5939 30.8236 26.1815 31.2576 27.0251C31.632 27.7527 31.6559 28.6303 31.3218 29.3773C30.9345 30.2432 29.7332 30.8676 27.3307 32.1162C21.4852 35.1542 13.0683 39.0869 4.90131 41.3329C2.45826 42.0048 1.23673 42.3408 0.70451 42.928C0.205824 43.4783 -0.0141213 44.0656 0.000700436 44.8075C0.0165186 45.5993 0.666485 46.5759 1.96642 48.5289L2.45757 49.2668C2.95711 50.0174 3.20687 50.3926 3.60271 50.6801C3.91464 50.9066 4.40405 51.1085 4.78515 51.1679C5.26876 51.2433 5.63807 51.1684 6.37669 51.0186C17.7361 48.7138 40.4912 37.165 40.5429 36.5357L39.5565 48.5471V48.5472C39.4223 50.1818 39.3552 50.9991 39.6326 51.6295C39.8764 52.1834 40.2981 52.6403 40.8311 52.9281C41.4378 53.2557 42.2592 53.2557 43.9021 53.2557H48.8677C50.4398 53.2557 51.2259 53.2557 51.8184 52.9469C52.3394 52.6754 52.7586 52.2429 53.0133 51.7142C53.303 51.1128 53.2772 50.3284 53.2255 48.7598L52.6535 31.3844C52.6262 30.5525 52.6125 30.1365 52.7132 29.7531C52.8022 29.4141 52.9568 29.0942 53.1671 28.8136C53.4049 28.4962 53.7387 28.2486 54.4062 27.7533C55.7644 26.7454 57.6384 25.3574 59.1644 24.2365C60.581 23.1959 62.3396 21.8591 63.8148 20.7273C64.8764 19.9128 65.4073 19.5055 65.6855 18.975C65.9292 18.51 66.0339 17.9761 65.9838 17.4537C65.9266 16.8576 65.5862 16.2762 64.9055 15.1134Z" fill="#F36923"/>
<path d="M88.3551 6.93743L87.5729 5.21798C86.1964 2.19194 85.5081 0.678925 84.5938 0.254087C83.8006 -0.114484 82.8784 -0.0804494 82.1146 0.345581C81.2343 0.836651 80.6598 2.39627 79.5108 5.5155L64.1025 47.3446C63.3772 49.3136 63.0145 50.298 63.1946 51.0851C63.3521 51.7737 63.7718 52.3742 64.3648 52.7595C65.0426 53.1999 66.0933 53.1999 68.1947 53.1999H96.0138C97.4395 53.1999 98.1523 53.1999 98.7041 52.9402C99.2766 52.6708 99.7373 52.2108 100.007 51.6393C100.267 51.0884 100.267 50.3768 100.267 48.9535C100.267 47.9711 100.267 47.48 100.12 47.0509C99.9664 46.6044 99.6993 46.2055 99.3448 45.8933C99.004 45.5933 98.5494 45.4054 97.6401 45.0298L82.6916 38.8546C81.3453 38.2984 80.6721 38.0203 80.2541 37.5469C79.8861 37.1302 79.6547 36.6111 79.591 36.0592C79.5186 35.4323 79.7624 34.7469 80.2499 33.3761L88.4941 10.1937C88.7116 9.58203 88.8203 9.2762 88.8552 8.96356C88.8862 8.68635 88.8742 8.40603 88.8198 8.13244C88.7584 7.8239 88.6239 7.52839 88.3551 6.93743Z" fill="#F36923"/>
<path fill-rule="evenodd" clip-rule="evenodd" d="M104.298 18.3435C104.298 9.14061 111.771 1.68018 120.99 1.68018H122.239C131.457 1.68018 138.93 9.14061 138.93 18.3435V36.5939C138.93 45.7968 131.457 53.2572 122.239 53.2572H120.99C111.771 53.2572 104.298 45.7968 104.298 36.5939V18.3435ZM114.567 18.1256C114.984 14.6094 117.98 11.8822 121.614 11.8822C125.533 11.8822 128.711 15.0542 128.711 18.967V26.2779L114.567 18.1256ZM114.517 28.5685V35.9704C114.517 39.8832 117.695 43.0551 121.614 43.0551C125.278 43.0551 128.293 40.2837 128.671 36.7262L114.517 28.5685Z" fill="#F36923"/>
<path d="M184.81 37.1189C184.81 36.5534 185.092 36.2707 185.656 36.2707H187.244C187.517 36.2707 187.73 36.3478 187.884 36.502H190.522V35.1913H186.168C185.605 35.1913 185.323 34.9343 185.323 34.4202C185.323 33.9062 185.605 33.6492 186.168 33.6492H190.522V32.2356C190.522 31.6702 190.804 31.3875 191.368 31.3875H192.956C193.519 31.3875 193.801 31.6702 193.801 32.2356V33.6492H198.181C198.744 33.6492 199.026 33.9062 199.026 34.4202C199.026 34.9343 198.744 35.1913 198.181 35.1913H193.801V36.502H198.693C199.257 36.502 199.538 36.7848 199.538 37.3502V45.4461C199.538 46.0116 199.257 46.2943 198.693 46.2943H197.105C196.781 46.2943 196.55 46.1915 196.413 45.9859H193.801V47.2195H198.667C199.231 47.2195 199.513 47.4766 199.513 47.9906C199.513 48.5046 199.231 48.7616 198.667 48.7616H193.801V50.6635C193.801 51.229 193.519 51.5117 192.956 51.5117H191.368C190.804 51.5117 190.522 51.229 190.522 50.6635V48.7616H185.681C185.118 48.7616 184.836 48.5046 184.836 47.9906C184.836 47.4766 185.118 47.2195 185.681 47.2195H190.522V45.9859H187.935C187.799 46.1915 187.568 46.2943 187.244 46.2943H185.656C185.092 46.2943 184.81 46.0116 184.81 45.4461V37.1189ZM183.479 36.682C183.513 36.7505 183.538 36.819 183.555 36.8876C183.573 36.9561 183.581 37.0246 183.581 37.0932C183.581 37.4359 183.368 37.6586 182.941 37.7614L181.634 38.0184C181.6 38.0356 181.558 38.0441 181.506 38.0441C181.455 38.0441 181.412 38.0441 181.378 38.0441C181.02 38.0441 180.755 37.8557 180.584 37.4787L178.535 32.9809C178.484 32.8439 178.458 32.7154 178.458 32.5954C178.458 32.2356 178.672 32.0043 179.099 31.9015L180.379 31.6445C180.414 31.6273 180.456 31.6188 180.507 31.6188C180.559 31.6188 180.601 31.6188 180.635 31.6188C180.994 31.6188 181.259 31.8072 181.43 32.1842L183.479 36.682ZM188.089 40.4087H190.522V38.0441H188.089V40.4087ZM196.26 38.0441H193.801V40.4087H196.26V38.0441ZM198.488 51.5374C199.017 51.4517 199.35 51.6745 199.487 52.2056C199.504 52.257 199.513 52.3341 199.513 52.4369C199.513 52.8139 199.274 53.0281 198.795 53.0795L191.88 53.9533C191.76 53.9705 191.649 53.979 191.547 53.979C191.461 53.9962 191.368 54.0047 191.265 54.0047C191.197 54.0047 191.128 54.0047 191.06 54.0047C191.009 54.0047 190.941 53.9962 190.855 53.979L178.356 52.7197C177.895 52.6683 177.664 52.4883 177.664 52.1799C177.664 51.9914 177.75 51.8115 177.92 51.6402L180.149 49.0958L178.561 46.6541C178.424 46.4314 178.356 46.2258 178.356 46.0373C178.356 45.8831 178.407 45.7032 178.51 45.4976L180.917 40.8199H178.228C177.664 40.8199 177.383 40.5629 177.383 40.0488C177.383 39.5348 177.664 39.2778 178.228 39.2778H183.837C184.332 39.2778 184.58 39.4663 184.58 39.8432C184.58 39.9632 184.537 40.1088 184.452 40.2802L181.481 46.0887L183.069 48.5303C183.205 48.7531 183.274 48.9415 183.274 49.0958C183.274 49.2842 183.18 49.4898 182.992 49.7126L181.455 51.4603L191.316 52.4369L198.488 51.5374ZM188.089 44.4438H190.522V41.9508H188.089V44.4438ZM193.801 44.4438H196.26V41.9508H193.801V44.4438Z" fill="white"/>
<path d="M156.346 37.1189C156.346 36.5534 156.625 36.2707 157.183 36.2707H158.754C159.025 36.2707 159.236 36.3478 159.388 36.502H161.999V35.1913H157.69C157.132 35.1913 156.853 34.9343 156.853 34.4202C156.853 33.9062 157.132 33.6492 157.69 33.6492H161.999V32.2356C161.999 31.6702 162.278 31.3875 162.835 31.3875H164.407C164.964 31.3875 165.243 31.6702 165.243 32.2356V33.6492H169.577C170.135 33.6492 170.414 33.9062 170.414 34.4202C170.414 34.9343 170.135 35.1913 169.577 35.1913H165.243V36.502H170.084C170.642 36.502 170.921 36.7848 170.921 37.3502V45.4461C170.921 46.0116 170.642 46.2943 170.084 46.2943H168.513C168.192 46.2943 167.964 46.1915 167.828 45.9859H165.243V47.2195H170.059C170.617 47.2195 170.895 47.4766 170.895 47.9906C170.895 48.5046 170.617 48.7616 170.059 48.7616H165.243V50.6635C165.243 51.229 164.964 51.5117 164.407 51.5117H162.835C162.278 51.5117 161.999 51.229 161.999 50.6635V48.7616H157.208C156.651 48.7616 156.372 48.5046 156.372 47.9906C156.372 47.4766 156.651 47.2195 157.208 47.2195H161.999V45.9859H159.439C159.304 46.1915 159.075 46.2943 158.754 46.2943H157.183C156.625 46.2943 156.346 46.0116 156.346 45.4461V37.1189ZM155.028 36.682C155.062 36.7505 155.088 36.819 155.104 36.8876C155.121 36.9561 155.13 37.0246 155.13 37.0932C155.13 37.4359 154.919 37.6586 154.496 37.7614L153.203 38.0184C153.17 38.0356 153.127 38.0441 153.077 38.0441C153.026 38.0441 152.984 38.0441 152.95 38.0441C152.595 38.0441 152.333 37.8557 152.164 37.4787L150.136 32.9809C150.086 32.8439 150.06 32.7154 150.06 32.5954C150.06 32.2356 150.272 32.0043 150.694 31.9015L151.961 31.6445C151.995 31.6273 152.037 31.6188 152.088 31.6188C152.139 31.6188 152.181 31.6188 152.215 31.6188C152.57 31.6188 152.832 31.8072 153.001 32.1842L155.028 36.682ZM159.591 40.4087H161.999V38.0441H159.591V40.4087ZM167.676 38.0441H165.243V40.4087H167.676V38.0441ZM169.882 51.5374C170.405 51.4517 170.735 51.6745 170.87 52.2056C170.887 52.257 170.895 52.3341 170.895 52.4369C170.895 52.8139 170.659 53.0281 170.186 53.0795L163.342 53.9533C163.224 53.9705 163.114 53.979 163.013 53.979C162.928 53.9962 162.835 54.0047 162.734 54.0047C162.666 54.0047 162.599 54.0047 162.531 54.0047C162.48 54.0047 162.413 53.9962 162.328 53.979L149.959 52.7197C149.503 52.6683 149.275 52.4883 149.275 52.1799C149.275 51.9914 149.359 51.8115 149.528 51.6402L151.733 49.0958L150.162 46.6541C150.027 46.4314 149.959 46.2258 149.959 46.0373C149.959 45.8831 150.01 45.7032 150.111 45.4976L152.494 40.8199H149.832C149.275 40.8199 148.996 40.5629 148.996 40.0488C148.996 39.5348 149.275 39.2778 149.832 39.2778H155.383C155.873 39.2778 156.118 39.4663 156.118 39.8432C156.118 39.9632 156.076 40.1088 155.992 40.2802L153.051 46.0887L154.623 48.5303C154.758 48.7531 154.826 48.9415 154.826 49.0958C154.826 49.2842 154.733 49.4898 154.547 49.7126L153.026 51.4603L162.784 52.4369L169.882 51.5374ZM159.591 44.4438H161.999V41.9508H159.591V44.4438ZM165.243 44.4438H167.676V41.9508H165.243V44.4438Z" fill="white"/>
<path d="M185.26 3.79885C185.26 4.35975 184.98 4.6402 184.419 4.6402H182.837C182.276 4.6402 181.996 4.35975 181.996 3.79885V3.31443H178.145C177.584 3.31443 177.304 3.05948 177.304 2.54956C177.304 2.03965 177.584 1.78469 178.145 1.78469H181.996V0.892348C181.996 0.331443 182.276 0.0509906 182.837 0.0509906H184.419C184.98 0.0509906 185.26 0.331443 185.26 0.892348V1.78469H192.12V0.841356C192.12 0.280452 192.401 0 192.962 0H194.543C195.104 0 195.384 0.280452 195.384 0.841356V1.78469H198.903C199.464 1.78469 199.745 2.03965 199.745 2.54956C199.745 3.05948 199.464 3.31443 198.903 3.31443H195.384V3.79885C195.384 4.35975 195.104 4.6402 194.543 4.6402H192.962C192.401 4.6402 192.12 4.35975 192.12 3.79885V3.31443H185.26V3.79885ZM191.865 13.6147C191.712 13.9886 191.448 14.1756 191.074 14.1756C191.04 14.1756 190.998 14.1756 190.947 14.1756C190.896 14.1756 190.845 14.1671 190.794 14.1501L189.952 13.9716C189.544 13.8696 189.34 13.6487 189.34 13.3087C189.34 13.2067 189.366 13.0793 189.417 12.9263L189.876 11.779L189.595 11.6515C189.255 11.4985 189.085 11.2946 189.085 11.0396C189.085 10.8696 189.162 10.6997 189.315 10.5297L189.493 10.3512C189.731 10.1133 189.969 9.99429 190.207 9.99429C190.36 9.99429 190.488 10.0198 190.59 10.0708L191.151 8.69401H190.156C189.595 8.69401 189.315 8.43905 189.315 7.92914C189.315 7.41923 189.595 7.16427 190.156 7.16427H191.763L192.375 5.68553C192.528 5.31159 192.783 5.12462 193.14 5.12462C193.174 5.12462 193.217 5.12462 193.268 5.12462C193.319 5.12462 193.37 5.13312 193.421 5.15012L194.262 5.32859C194.67 5.43057 194.874 5.65153 194.874 5.99147C194.874 6.09345 194.849 6.22093 194.798 6.37391L194.466 7.16427H196.226C196.787 7.16427 197.067 7.44472 197.067 8.00563V12.4929H197.501V11.779C197.501 11.3031 197.781 11.0651 198.342 11.0651H199.158C199.719 11.0651 200 11.3456 200 11.9065V13.1812C200 13.7421 199.719 14.0226 199.158 14.0226H195.155C194.594 14.0226 194.313 13.7421 194.313 13.1812V12.6713L194.288 12.6968L194.109 12.8753C193.871 13.1133 193.633 13.2322 193.395 13.2322C193.242 13.2322 193.098 13.1982 192.962 13.1302L192.197 12.7988L191.865 13.6147ZM180.721 10.4787C180.551 10.7847 180.304 10.9376 179.981 10.9376C179.862 10.9376 179.735 10.9121 179.599 10.8611L178.961 10.6317C178.604 10.4957 178.426 10.2832 178.426 9.99429C178.426 9.84131 178.477 9.67984 178.579 9.50987L178.859 9.05095H177.763C177.202 9.05095 176.921 8.79599 176.921 8.28608C176.921 7.77617 177.202 7.52121 177.763 7.52121H182.123V7.44472V7.18977H178.553C177.992 7.18977 177.712 6.93481 177.712 6.4249C177.712 5.91499 177.992 5.66003 178.553 5.66003H182.2C182.319 5.35408 182.574 5.20111 182.965 5.20111H184.036C184.427 5.20111 184.682 5.35408 184.801 5.66003H187.479C188.04 5.66003 188.32 5.91499 188.32 6.4249C188.32 6.93481 188.04 7.18977 187.479 7.18977H184.878V7.44472V7.52121H188.142C188.703 7.52121 188.983 7.77617 188.983 8.28608C188.983 8.79599 188.703 9.05095 188.142 9.05095H186.586V9.22942H188.269C188.83 9.22942 189.111 9.48437 189.111 9.99429C189.111 10.5042 188.83 10.7592 188.269 10.7592H184.674C184.487 10.7592 184.334 10.7252 184.215 10.6572V10.6827V11.1416H187.479C188.04 11.1416 188.32 11.3965 188.32 11.9065C188.32 12.4164 188.04 12.6713 187.479 12.6713H184.215V12.9008L186.79 12.7988C187.385 12.7648 187.683 13.0283 187.683 13.5892C187.683 14.0481 187.419 14.2945 186.892 14.3285L178.604 14.66C178.009 14.694 177.712 14.4305 177.712 13.8696C177.712 13.4107 177.975 13.1642 178.502 13.1302L181.46 13.0028V12.6713H178.987C178.426 12.6713 178.145 12.4164 178.145 11.9065C178.145 11.3965 178.426 11.1416 178.987 11.1416H181.46V10.6827C181.46 10.1218 181.741 9.84131 182.302 9.84131H183.373C183.56 9.84131 183.713 9.87531 183.832 9.9433V9.9178V9.12743V9.05095H181.486C181.469 9.18692 181.418 9.3314 181.333 9.48438L180.721 10.4787ZM194.007 11.575C194.126 11.626 194.228 11.694 194.313 11.779V8.69401H193.854L192.885 11.0906L194.007 11.575ZM196.914 14.711C197.475 14.711 197.756 14.9659 197.756 15.4758C197.756 15.9858 197.475 16.2407 196.914 16.2407H180.032C179.471 16.2407 179.191 15.9858 179.191 15.4758C179.191 14.9659 179.471 14.711 180.032 14.711H196.914ZM196.761 20.4985C196.999 20.6855 197.118 20.8809 197.118 21.0849C197.118 21.2889 196.974 21.4843 196.685 21.6713L196.2 21.9772C196.03 22.0962 195.843 22.1557 195.639 22.1557C195.435 22.1557 195.231 22.0792 195.027 21.9262L194.16 21.2634L181.919 21.8752C181.409 21.9092 181.154 21.7648 181.154 21.4418C181.154 21.2549 181.256 21.0594 181.46 20.8554L183.73 18.6118H178.553C177.992 18.6118 177.712 18.3569 177.712 17.8469C177.712 17.337 177.992 17.0821 178.553 17.0821H198.801C199.362 17.0821 199.643 17.337 199.643 17.8469C199.643 18.3569 199.362 18.6118 198.801 18.6118H194.288C194.339 18.6458 194.39 18.6798 194.441 18.7138L196.761 20.4985ZM186.612 19.1217L185.566 20.167L192.426 19.8101C192.375 19.7251 192.35 19.6401 192.35 19.5551C192.35 19.3512 192.494 19.1557 192.783 18.9687L193.268 18.6628C193.302 18.6458 193.327 18.6288 193.344 18.6118H186.892C186.875 18.7648 186.782 18.9348 186.612 19.1217Z" fill="white"/>
<path d="M150.396 19.1644C150.226 19.2664 150.064 19.3175 149.911 19.3175C149.69 19.3175 149.469 19.2239 149.248 19.0368L149.019 18.8327C148.798 18.6625 148.687 18.4669 148.687 18.2458C148.687 18.0076 148.832 17.812 149.121 17.6589L162.993 10.0549V5.56395H149.376C148.815 5.56395 148.534 5.30879 148.534 4.79845C148.534 4.28812 148.815 4.03295 149.376 4.03295H162.993V1.07301C162.993 0.511641 163.273 0.230957 163.834 0.230957H165.415C165.976 0.230957 166.257 0.511641 166.257 1.07301V4.03295H170.541C171.102 4.03295 171.382 4.28812 171.382 4.79845C171.382 5.30879 171.102 5.56395 170.541 5.56395H166.257V8.26873L168.348 7.12047C168.535 7.01841 168.696 6.96738 168.832 6.96738C169.053 6.96738 169.274 7.06094 169.495 7.24806L169.725 7.45219C169.946 7.6223 170.056 7.81793 170.056 8.03908C170.056 8.27723 169.912 8.47286 169.623 8.62596L166.257 10.4632V21.3333C166.257 21.9287 165.968 22.2009 165.39 22.1498L157.74 21.4354C157.23 21.3843 156.975 21.1717 156.975 20.7974C156.975 20.4912 157.06 20.2616 157.23 20.1085C157.417 19.9384 157.655 19.8703 157.944 19.9044L162.993 20.3892V12.2493L150.396 19.1644Z" fill="white"/>
</svg>
