<svg width="322" height="482" viewBox="0 0 322 482" fill="none" xmlns="http://www.w3.org/2000/svg">
<path opacity="0.3" fill-rule="evenodd" clip-rule="evenodd" d="M1 156.077C1 70.4303 70.0509 1 155.229 1H166.77C251.949 1 321 70.4303 321 156.077V325.923C321 411.57 251.949 481 166.77 481H155.229C70.0509 481 1 411.57 1 325.923V156.077ZM95.8838 154.049C99.7345 121.325 127.419 95.9451 161 95.9451C197.215 95.9451 226.574 125.465 226.574 161.879V229.918L95.8838 154.049ZM95.4262 251.235V320.121C95.4262 356.535 124.785 386.055 161 386.055C194.852 386.055 222.713 360.262 226.205 327.155L95.4262 251.235Z" stroke="#8D0099" stroke-width="2"/>
</svg>
